<?xml version="1.0" encoding="utf-8"?>
<!-- Uploaded to: SVG Repo, www.svgrepo.com, Generator: SVG Repo Mixer Tools -->
<svg width="800px" height="800px" viewBox="0 0 1024 1024" class="icon"  version="1.1" xmlns="http://www.w3.org/2000/svg"><path d="M365.71 548.57h438.86v73.14H365.71zM365.7 402.56h219.43v73.14H365.7zM365.71 694.86h438.86V768H365.71zM639.76 321.68v54.86h63.93v18.58h-61.9v54.86h61.9v59.61h54.85v-59.61h61.88v-54.86h-61.88v-18.58h63.93v-54.86h-32.09l43.84-43.84-38.78-38.79-64.32 64.33-64.33-64.33-38.78 38.79 43.84 43.84z" fill="#0F1F3C" /><path d="M219.44 109.62v219.52H73.14v475.43c0 60.59 49.12 109.71 109.71 109.71 0.3 0 0.58-0.09 0.89-0.09h631.8c74.62 0 135.32-61.14 135.32-136.3V109.62H219.44z m-36.58 731.52c-20.17 0-36.57-16.41-36.57-36.57V402.29h73.14v402.29c0 20.01-16.18 36.23-36.13 36.48h-0.43l-0.01 0.08z m694.86-63.25c0 34.82-27.89 63.16-62.18 63.16H285.88c4.06-11.47 6.69-23.62 6.69-36.48V378.93h0.01V182.77h585.14v595.12z" fill="#0F1F3C" /></svg>