<?xml version="1.0" ?>
<!-- Uploaded to: SVG Repo, www.svgrepo.com, Generator: SVG Repo Mixer Tools -->
<svg fill="#000000" width="800px" height="800px" viewBox="0 0 512 512" version="1.1" xml:space="preserve" xmlns="http://www.w3.org/2000/svg" xmlns:xlink="http://www.w3.org/1999/xlink">
<g id="_x30_4_x2C__Smartphone_x2C__mobile_x2C__phone_x2C__check_x2C__mark">
<g id="XMLID_858_">
<g id="XMLID_237_">
<path d="M256,355.643c-61.836,0-112.143-50.307-112.143-112.143S194.164,131.357,256,131.357     S368.143,181.664,368.143,243.5S317.836,355.643,256,355.643z M256,141.357c-56.322,0-102.143,45.821-102.143,102.143     c0,56.321,45.821,102.143,102.143,102.143c56.321,0,102.143-45.821,102.143-102.143C358.143,187.178,312.321,141.357,256,141.357     z" id="XMLID_806_"/>
</g>
<g id="XMLID_236_">
<path d="M234.978,310.53c-1.326,0-2.598-0.526-3.536-1.465l-43.862-43.862c-4.14-4.139-6.419-9.643-6.419-15.498     c0-5.854,2.28-11.358,6.419-15.498s9.644-6.419,15.498-6.419c5.854,0,11.358,2.28,15.498,6.419l16.402,16.402l56.277-56.276     c8.545-8.545,22.449-8.545,30.994,0l0,0l0,0c4.141,4.14,6.42,9.644,6.42,15.498c0,5.854-2.279,11.358-6.42,15.498l-83.735,83.736     C237.576,310.004,236.304,310.53,234.978,310.53z M203.078,237.789c-3.183,0-6.175,1.24-8.426,3.49     c-2.251,2.251-3.491,5.244-3.491,8.427c0,3.184,1.24,6.176,3.491,8.426l40.326,40.327l80.201-80.201     c2.251-2.251,3.49-5.244,3.49-8.427s-1.239-6.176-3.49-8.427l0,0c-4.646-4.646-12.207-4.646-16.854,0l-59.812,59.811     c-1.953,1.953-5.118,1.953-7.071,0l-19.938-19.937C209.254,239.028,206.262,237.789,203.078,237.789z" id="XMLID_803_"/>
</g>
<g id="XMLID_859_">
<g id="XMLID_235_">
<path d="M355.5,491h-199c-27.846,0-50.5-22.654-50.5-50.5v-369c0-27.846,22.654-50.5,50.5-50.5h199      c27.846,0,50.5,22.654,50.5,50.5v369C406,468.346,383.346,491,355.5,491z M156.5,31C134.168,31,116,49.168,116,71.5v369      c0,22.332,18.168,40.5,40.5,40.5h199c22.332,0,40.5-18.168,40.5-40.5v-369c0-22.332-18.168-40.5-40.5-40.5H156.5z" id="XMLID_800_"/>
</g>
<g id="XMLID_234_">
<path d="M366,421H146c-2.761,0-5-2.238-5-5V66c0-2.761,2.239-5,5-5h220c2.762,0,5,2.239,5,5v350      C371,418.762,368.762,421,366,421z M151,411h210V71H151V411z" id="XMLID_797_"/>
</g>
<g id="XMLID_233_">
<path d="M276,466h-40c-8.271,0-15-6.729-15-15s6.729-15,15-15h40c8.271,0,15,6.729,15,15S284.271,466,276,466z       M236,446c-2.757,0-5,2.243-5,5s2.243,5,5,5h40c2.757,0,5-2.243,5-5s-2.243-5-5-5H236z" id="XMLID_794_"/>
</g>
<g id="XMLID_232_">
<path d="M346,456h-30c-2.762,0-5-2.238-5-5s2.238-5,5-5h30c2.762,0,5,2.238,5,5S348.762,456,346,456z" id="XMLID_793_"/>
</g>
<g id="XMLID_231_">
<path d="M196,456h-30c-2.761,0-5-2.238-5-5s2.239-5,5-5h30c2.761,0,5,2.238,5,5S198.761,456,196,456z" id="XMLID_792_"/>
</g>
</g>
</g>
</g>
<g id="Layer_1"/>
</svg>